<svg xmlns="http://www.w3.org/2000/svg" width="512" height="512" viewBox="0 0 512 512" role="img" aria-labelledby="title">
  <title id="title">정부지원금 올데이 아이콘</title>
  <rect width="512" height="512" rx="104" fill="#ffffff"/>
  <circle cx="256" cy="256" r="176" fill="#ffffff" stroke="#2a8bd2" stroke-width="18"/>
  <g stroke="#f5b422" stroke-width="18" stroke-linecap="square">
    <path d="M256 98v42"/>
    <path d="M188 118l20 36"/>
    <path d="M137 169l36 20"/>
    <path d="M116 238h42"/>
    <path d="M324 118l-20 36"/>
    <path d="M375 169l-36 20"/>
    <path d="M396 238h-42"/>
  </g>
  <path d="M190 224c32-6 55-20 66-36 11 16 34 30 66 36v54c0 54-29 86-66 105-37-19-66-51-66-105v-54z" fill="#ffffff" stroke="#2a8bd2" stroke-width="12" stroke-linejoin="round"/>
  <path d="M206 290c21 20 75 20 100 1v36c-25 18-79 18-100-1v-36z" fill="#eef7ff" stroke="#2a8bd2" stroke-width="9" stroke-linejoin="round"/>
  <g stroke="#f5b422" stroke-width="9" stroke-linejoin="round">
    <ellipse cx="256" cy="214" rx="44" ry="18" fill="#fff8e2"/>
    <path d="M212 214v29c0 11 20 20 44 20s44-9 44-20v-29" fill="#ffffff"/>
    <ellipse cx="256" cy="243" rx="44" ry="18" fill="#fff8e2"/>
    <path d="M226 258v29c0 11 20 20 44 20s44-9 44-20v-29" fill="#ffffff"/>
    <ellipse cx="270" cy="258" rx="44" ry="18" fill="#fff8e2"/>
  </g>
</svg>
