<svg xmlns="http://www.w3.org/2000/svg" width="512" height="512" viewBox="0 0 512 512" role="img" aria-labelledby="title desc">
  <title id="title">정부지원금 올데이 로고</title>
  <desc id="desc">파란 원 안에 햇살, 방패, 동전, 정부지원금 올데이 문구가 들어간 앱 아이콘형 로고</desc>
  <defs>
    <filter id="shadow" x="-12%" y="-8%" width="124%" height="124%">
      <feDropShadow dx="0" dy="18" stdDeviation="16" flood-color="#0f172a" flood-opacity="0.18"/>
    </filter>
  </defs>
  <rect width="512" height="512" fill="#eef4f7"/>
  <rect x="42" y="42" width="428" height="428" rx="88" fill="#ffffff" filter="url(#shadow)"/>
  <circle cx="256" cy="256" r="168" fill="#ffffff" stroke="#2a8bd2" stroke-width="14"/>
  <g stroke="#f5b422" stroke-width="16" stroke-linecap="square">
    <path d="M256 112v35"/>
    <path d="M195 127l17 31"/>
    <path d="M150 174l31 17"/>
    <path d="M132 236h35"/>
    <path d="M317 127l-17 31"/>
    <path d="M362 174l-31 17"/>
    <path d="M380 236h-35"/>
  </g>
  <path d="M198 222c28-5 48-18 58-32 10 14 30 27 58 32v47c0 47-25 75-58 91-33-16-58-44-58-91v-47z" fill="#ffffff" stroke="#2a8bd2" stroke-width="9" stroke-linejoin="round"/>
  <path d="M214 279c18 17 66 18 84 1v31c-18 17-66 16-84-1v-31z" fill="#eef7ff" stroke="#2a8bd2" stroke-width="7" stroke-linejoin="round"/>
  <g stroke="#f5b422" stroke-width="7" stroke-linejoin="round">
    <ellipse cx="256" cy="213" rx="39" ry="16" fill="#fff8e2"/>
    <path d="M217 213v25c0 9 17 17 39 17s39-8 39-17v-25" fill="#ffffff"/>
    <ellipse cx="256" cy="238" rx="39" ry="16" fill="#fff8e2"/>
    <path d="M229 251v25c0 9 17 17 39 17s39-8 39-17v-25" fill="#ffffff"/>
    <ellipse cx="268" cy="251" rx="39" ry="16" fill="#fff8e2"/>
  </g>
  <text x="256" y="354" fill="#0f5e9c" font-family="Pretendard, 'Noto Sans KR', Arial, sans-serif" font-size="54" font-weight="900" text-anchor="middle">정부지원금</text>
  <text x="256" y="404" fill="#2384c6" font-family="Pretendard, 'Noto Sans KR', Arial, sans-serif" font-size="42" font-weight="800" text-anchor="middle">올데이</text>
</svg>
