<svg xmlns="http://www.w3.org/2000/svg" width="512" height="512" viewBox="0 0 512 512" role="img" aria-labelledby="title desc">
  <title id="title">Government Support 25 logo</title>
  <desc id="desc">Icon logo with sun, shield, and coins.</desc>
  <defs>
    <filter id="shadow" x="-16%" y="-12%" width="132%" height="132%">
      <feDropShadow dx="0" dy="18" stdDeviation="18" flood-color="#0f172a" flood-opacity="0.16" />
    </filter>
    <linearGradient id="blueRing" x1="96" y1="92" x2="410" y2="420" gradientUnits="userSpaceOnUse">
      <stop stop-color="#38a5e6" />
      <stop offset="1" stop-color="#1d62bd" />
    </linearGradient>
    <linearGradient id="goldCoin" x1="214" y1="196" x2="312" y2="306" gradientUnits="userSpaceOnUse">
      <stop stop-color="#fff6c7" />
      <stop offset="1" stop-color="#f3b322" />
    </linearGradient>
  </defs>
  <rect width="512" height="512" rx="104" fill="#eef7fb" />
  <rect x="48" y="48" width="416" height="416" rx="92" fill="#ffffff" filter="url(#shadow)" />
  <circle cx="256" cy="256" r="166" fill="#ffffff" stroke="url(#blueRing)" stroke-width="16" />
  <g stroke="#f4b62c" stroke-width="18" stroke-linecap="round">
    <path d="M256 105v40" />
    <path d="M195 122l18 34" />
    <path d="M149 168l34 18" />
    <path d="M132 232h40" />
    <path d="M317 122l-18 34" />
    <path d="M363 168l-34 18" />
    <path d="M380 232h-40" />
  </g>
  <path d="M195 224c31-6 51-19 61-34 10 15 30 28 61 34v50c0 51-27 82-61 99-34-17-61-48-61-99v-50z" fill="#f7fbff" stroke="#2785cf" stroke-width="12" stroke-linejoin="round" />
  <path d="M212 288c21 18 66 19 88 1v35c-22 17-67 16-88-1v-35z" fill="#e9f6ff" stroke="#2785cf" stroke-width="9" stroke-linejoin="round" />
  <g stroke="#f2b52c" stroke-width="9" stroke-linejoin="round">
    <ellipse cx="256" cy="215" rx="43" ry="18" fill="#fff8df" />
    <path d="M213 215v29c0 11 19 20 43 20s43-9 43-20v-29" fill="#ffffff" />
    <ellipse cx="256" cy="244" rx="43" ry="18" fill="url(#goldCoin)" />
    <path d="M226 258v29c0 11 20 20 44 20s44-9 44-20v-29" fill="#ffffff" />
    <ellipse cx="270" cy="258" rx="44" ry="18" fill="url(#goldCoin)" />
  </g>
</svg>
